<svg xmlns="http://www.w3.org/2000/svg" viewBox="0 0 512 512" width="512" height="512">
  <!-- Ink-on-paper brand mark - matches the web app's "ink" logo variant -->
  <rect width="512" height="512" rx="112" fill="#FAFAFA"/>

  <g transform="translate(256 256) skewY(-10) translate(-256 -256)">
    <!-- Drop shadow -->
    <g transform="translate(268, 268)" fill="#121212" opacity="0.14">
      <rect x="-34" y="-155" width="68" height="310" rx="26"/>
      <rect x="-34" y="-155" width="68" height="310" rx="26" transform="rotate(45)"/>
      <rect x="-34" y="-155" width="68" height="310" rx="26" transform="rotate(90)"/>
      <rect x="-34" y="-155" width="68" height="310" rx="26" transform="rotate(135)"/>
    </g>

    <!-- Main mark -->
    <g transform="translate(252, 252)">
      <g fill="#121212">
        <rect x="-34" y="-155" width="68" height="310" rx="26"/>
        <rect x="-34" y="-155" width="68" height="310" rx="26" transform="rotate(45)"/>
        <rect x="-34" y="-155" width="68" height="310" rx="26" transform="rotate(90)"/>
        <rect x="-34" y="-155" width="68" height="310" rx="26" transform="rotate(135)"/>
      </g>

      <g transform="scale(0.78)">
        <path d="M -68,-8 C -46,-42 -20,-60 4,-60 C 30,-60 54,-40 68,-8 Q 74,0 68,8 C 48,40 24,60 -4,60 C -32,60 -56,40 -68,8 Q -74,0 -68,-8 Z" fill="#FAFAFA"/>
        <ellipse cx="0" cy="0" rx="22" ry="34" fill="#121212"/>
      </g>
    </g>
  </g>
</svg>
